<?xml version="1.0" encoding="UTF-8"?>
<svg class="" enable-background="new 0 0 512 512" version="1.1" viewBox="0 0 512 512" xml:space="preserve" xmlns="http://www.w3.org/2000/svg"><circle cx="256" cy="256" r="256" fill="#f0f2f3" shape="circle"/><g transform="matrix(.87 0 0 .87 33.28 33.28)">
<path class="" d="M512,256c0,82.317-38.86,155.564-99.234,202.397C369.455,492.001,315.068,512,256,512  s-113.455-19.999-156.766-53.603C38.86,411.564,0,338.317,0,256C0,114.615,114.615,0,256,0S512,114.615,512,256z" fill="#f2f2f2" style="" data-original="#f2f2f2" xmlns="http://www.w3.org/2000/svg"/>
<path d="m441.99 119.47-29.226 338.92c-43.311 33.604-97.698 53.603-156.77 53.603s-113.46-19.999-156.77-53.603l-29.226-338.92h371.98z" fill="#006bc0" style="" data-original="#006bc0" xmlns="http://www.w3.org/2000/svg"/>
<polygon points="256 151.34 256 505.3 378.27 470.78 405.54 151.34" fill="#0096dc" style="" data-original="#0096dc" xmlns="http://www.w3.org/2000/svg"/>
<polygon points="364.04 289.79 275.85 289.79 368 242.89 371.98 195.75 140.01 195.75 144.07 243.81 237.19 243.81 147.84 288.48 152 337.72 152 337.72 311.38 337.72 306.15 396.37 256 409.95 203.75 395.32 202.45 358.75 153.78 358.75 159.87 430.85 256 458.02 352.13 430.85 364.04 289.78" fill="#fff" style="" data-original="#ffffff" xmlns="http://www.w3.org/2000/svg"/>
<g fill="#222123" xmlns="http://www.w3.org/2000/svg">
	<polygon points="165.35 67.224 165.35 33.787 213.42 33.787 213.42 15.676 147.94 15.676 147.94 85.335 213.42 85.335 213.42 67.224" style="" data-original="#222123"/>
	<polygon points="241.54 42.93 241.54 34.57 289.35 34.57 289.35 33.787 289.35 15.676 223.87 15.676 223.87 58.864 270.8 58.864 270.8 67.224 223.87 67.224 223.87 85.335 289.35 85.335 289.35 67.224 289.35 42.93" style="" data-original="#222123"/>
	<polygon points="316.25 42.93 316.25 34.57 364.06 34.57 364.06 33.787 364.06 15.676 298.58 15.676 298.58 58.864 345.51 58.864 345.51 67.224 298.58 67.224 298.58 85.335 364.06 85.335 364.06 67.224 364.06 42.93" style="" data-original="#222123"/>
</g>















</g></svg>
